<mxfile host="app.diagrams.net" agent="Mozilla/5.0 (Windows NT 10.0; Win64; x64) AppleWebKit/537.36 (KHTML, like Gecko) Chrome/138.0.0.0 Safari/537.36 OPR/122.0.0.0" version="28.2.5">
  <diagram name="PÃ¡gina-1" id="q0dLffiNZhF94chbO-cL">
    <mxGraphModel dx="1687" dy="957" grid="1" gridSize="10" guides="1" tooltips="1" connect="1" arrows="1" fold="1" page="1" pageScale="1" pageWidth="827" pageHeight="1169" math="0" shadow="0">
      <root>
        <mxCell id="0" />
        <mxCell id="1" parent="0" />
        <mxCell id="UL-ph8x6PNyWj-oFK9BK-1" value="Aluno" style="swimlane;fontStyle=1;align=center;verticalAlign=top;childLayout=stackLayout;horizontal=1;startSize=26;horizontalStack=0;resizeParent=1;resizeParentMax=0;resizeLast=0;collapsible=1;marginBottom=0;whiteSpace=wrap;html=1;" parent="1" vertex="1">
          <mxGeometry x="320" y="150" width="160" height="170" as="geometry" />
        </mxCell>
        <mxCell id="UL-ph8x6PNyWj-oFK9BK-2" value="+Nome: String&lt;div&gt;+Idade: int&lt;/div&gt;&lt;div&gt;+Email: String&lt;/div&gt;&lt;div&gt;+Matricula: int&lt;/div&gt;" style="text;strokeColor=none;fillColor=none;align=left;verticalAlign=top;spacingLeft=4;spacingRight=4;overflow=hidden;rotatable=0;points=[[0,0.5],[1,0.5]];portConstraint=eastwest;whiteSpace=wrap;html=1;" parent="UL-ph8x6PNyWj-oFK9BK-1" vertex="1">
          <mxGeometry y="26" width="160" height="64" as="geometry" />
        </mxCell>
        <mxCell id="UL-ph8x6PNyWj-oFK9BK-3" value="" style="line;strokeWidth=1;fillColor=none;align=left;verticalAlign=middle;spacingTop=-1;spacingLeft=3;spacingRight=3;rotatable=0;labelPosition=right;points=[];portConstraint=eastwest;strokeColor=inherit;" parent="UL-ph8x6PNyWj-oFK9BK-1" vertex="1">
          <mxGeometry y="90" width="160" height="30" as="geometry" />
        </mxCell>
        <mxCell id="UL-ph8x6PNyWj-oFK9BK-4" value="&lt;span style=&quot;color: rgb(0, 0, 0); font-family: Helvetica; font-size: 12px; font-style: normal; font-variant-ligatures: normal; font-variant-caps: normal; font-weight: 400; letter-spacing: normal; orphans: 2; text-align: center; text-indent: 0px; text-transform: none; widows: 2; word-spacing: 0px; -webkit-text-stroke-width: 0px; white-space: nowrap; text-decoration-thickness: initial; text-decoration-style: initial; text-decoration-color: initial; float: none; display: inline !important;&quot;&gt;+cadastrarPessoa()&lt;/span&gt;&lt;div&gt;&lt;span style=&quot;color: rgb(0, 0, 0); font-family: Helvetica; font-size: 12px; font-style: normal; font-variant-ligatures: normal; font-variant-caps: normal; font-weight: 400; letter-spacing: normal; orphans: 2; text-align: center; text-indent: 0px; text-transform: none; widows: 2; word-spacing: 0px; -webkit-text-stroke-width: 0px; white-space: nowrap; text-decoration-thickness: initial; text-decoration-style: initial; text-decoration-color: initial; float: none; display: inline !important;&quot;&gt;+estudar()&lt;/span&gt;&lt;/div&gt;" style="text;whiteSpace=wrap;html=1;" parent="UL-ph8x6PNyWj-oFK9BK-1" vertex="1">
          <mxGeometry y="120" width="160" height="50" as="geometry" />
        </mxCell>
        <mxCell id="UL-ph8x6PNyWj-oFK9BK-5" value="Turma" style="swimlane;fontStyle=1;align=center;verticalAlign=top;childLayout=stackLayout;horizontal=1;startSize=26;horizontalStack=0;resizeParent=1;resizeParentMax=0;resizeLast=0;collapsible=1;marginBottom=0;whiteSpace=wrap;html=1;" parent="1" vertex="1">
          <mxGeometry x="560" y="320" width="160" height="78" as="geometry" />
        </mxCell>
        <mxCell id="UL-ph8x6PNyWj-oFK9BK-6" value="IDTurma: int&lt;div&gt;QuantidadeDeAlunos: int&lt;/div&gt;" style="text;strokeColor=none;fillColor=none;align=left;verticalAlign=top;spacingLeft=4;spacingRight=4;overflow=hidden;rotatable=0;points=[[0,0.5],[1,0.5]];portConstraint=eastwest;whiteSpace=wrap;html=1;" parent="UL-ph8x6PNyWj-oFK9BK-5" vertex="1">
          <mxGeometry y="26" width="160" height="44" as="geometry" />
        </mxCell>
        <mxCell id="UL-ph8x6PNyWj-oFK9BK-7" value="" style="line;strokeWidth=1;fillColor=none;align=left;verticalAlign=middle;spacingTop=-1;spacingLeft=3;spacingRight=3;rotatable=0;labelPosition=right;points=[];portConstraint=eastwest;strokeColor=inherit;" parent="UL-ph8x6PNyWj-oFK9BK-5" vertex="1">
          <mxGeometry y="70" width="160" height="8" as="geometry" />
        </mxCell>
        <mxCell id="UL-ph8x6PNyWj-oFK9BK-11" value="Pessoa" style="swimlane;fontStyle=1;align=center;verticalAlign=top;childLayout=stackLayout;horizontal=1;startSize=26;horizontalStack=0;resizeParent=1;resizeParentMax=0;resizeLast=0;collapsible=1;marginBottom=0;whiteSpace=wrap;html=1;" parent="1" vertex="1">
          <mxGeometry x="80" y="320" width="160" height="140" as="geometry" />
        </mxCell>
        <mxCell id="UL-ph8x6PNyWj-oFK9BK-12" value="+Nome: String&lt;div&gt;+Idade: int&lt;/div&gt;&lt;div&gt;+Email: String&lt;/div&gt;" style="text;strokeColor=none;fillColor=none;align=left;verticalAlign=top;spacingLeft=4;spacingRight=4;overflow=hidden;rotatable=0;points=[[0,0.5],[1,0.5]];portConstraint=eastwest;whiteSpace=wrap;html=1;" parent="UL-ph8x6PNyWj-oFK9BK-11" vertex="1">
          <mxGeometry y="26" width="160" height="54" as="geometry" />
        </mxCell>
        <mxCell id="UL-ph8x6PNyWj-oFK9BK-13" value="" style="line;strokeWidth=1;fillColor=none;align=left;verticalAlign=middle;spacingTop=-1;spacingLeft=3;spacingRight=3;rotatable=0;labelPosition=right;points=[];portConstraint=eastwest;strokeColor=inherit;" parent="UL-ph8x6PNyWj-oFK9BK-11" vertex="1">
          <mxGeometry y="80" width="160" height="30" as="geometry" />
        </mxCell>
        <mxCell id="UL-ph8x6PNyWj-oFK9BK-26" value="+cadastrarPessoa()" style="text;html=1;align=left;verticalAlign=middle;resizable=0;points=[];autosize=1;strokeColor=none;fillColor=none;" parent="UL-ph8x6PNyWj-oFK9BK-11" vertex="1">
          <mxGeometry y="110" width="160" height="30" as="geometry" />
        </mxCell>
        <mxCell id="UL-ph8x6PNyWj-oFK9BK-14" value="Professor" style="swimlane;fontStyle=1;align=center;verticalAlign=top;childLayout=stackLayout;horizontal=1;startSize=26;horizontalStack=0;resizeParent=1;resizeParentMax=0;resizeLast=0;collapsible=1;marginBottom=0;whiteSpace=wrap;html=1;" parent="1" vertex="1">
          <mxGeometry x="320" y="460" width="160" height="180" as="geometry" />
        </mxCell>
        <mxCell id="UL-ph8x6PNyWj-oFK9BK-15" value="+Nome: String&lt;div&gt;+Idade: int&lt;/div&gt;&lt;div&gt;+Email: String&lt;/div&gt;&lt;div&gt;+Disciplina: String&lt;/div&gt;" style="text;strokeColor=none;fillColor=none;align=left;verticalAlign=top;spacingLeft=4;spacingRight=4;overflow=hidden;rotatable=0;points=[[0,0.5],[1,0.5]];portConstraint=eastwest;whiteSpace=wrap;html=1;" parent="UL-ph8x6PNyWj-oFK9BK-14" vertex="1">
          <mxGeometry y="26" width="160" height="74" as="geometry" />
        </mxCell>
        <mxCell id="UL-ph8x6PNyWj-oFK9BK-16" value="" style="line;strokeWidth=1;fillColor=none;align=left;verticalAlign=middle;spacingTop=-1;spacingLeft=3;spacingRight=3;rotatable=0;labelPosition=right;points=[];portConstraint=eastwest;strokeColor=inherit;" parent="UL-ph8x6PNyWj-oFK9BK-14" vertex="1">
          <mxGeometry y="100" width="160" height="30" as="geometry" />
        </mxCell>
        <mxCell id="UL-ph8x6PNyWj-oFK9BK-17" value="+cadastrarPessoa()&lt;br&gt;+ministrarAula()" style="text;whiteSpace=wrap;verticalAlign=top;align=left;html=1;" parent="UL-ph8x6PNyWj-oFK9BK-14" vertex="1">
          <mxGeometry y="130" width="160" height="50" as="geometry" />
        </mxCell>
        <mxCell id="UL-ph8x6PNyWj-oFK9BK-29" style="edgeStyle=orthogonalEdgeStyle;rounded=0;orthogonalLoop=1;jettySize=auto;html=1;exitX=0.5;exitY=1;exitDx=0;exitDy=0;" parent="UL-ph8x6PNyWj-oFK9BK-14" source="UL-ph8x6PNyWj-oFK9BK-17" target="UL-ph8x6PNyWj-oFK9BK-17" edge="1">
          <mxGeometry relative="1" as="geometry" />
        </mxCell>
        <mxCell id="UL-ph8x6PNyWj-oFK9BK-18" value="" style="endArrow=block;dashed=1;endFill=0;endSize=12;html=1;rounded=0;exitX=0;exitY=0;exitDx=0;exitDy=0;entryX=1;entryY=1;entryDx=0;entryDy=0;" parent="1" source="UL-ph8x6PNyWj-oFK9BK-14" target="UL-ph8x6PNyWj-oFK9BK-11" edge="1">
          <mxGeometry width="160" relative="1" as="geometry">
            <mxPoint x="370" y="480" as="sourcePoint" />
            <mxPoint x="530" y="480" as="targetPoint" />
          </mxGeometry>
        </mxCell>
        <mxCell id="UL-ph8x6PNyWj-oFK9BK-19" value="" style="endArrow=block;dashed=1;endFill=0;endSize=12;html=1;rounded=0;exitX=0;exitY=1;exitDx=0;exitDy=0;entryX=1;entryY=0;entryDx=0;entryDy=0;" parent="1" source="UL-ph8x6PNyWj-oFK9BK-1" target="UL-ph8x6PNyWj-oFK9BK-11" edge="1">
          <mxGeometry width="160" relative="1" as="geometry">
            <mxPoint x="340" y="310" as="sourcePoint" />
            <mxPoint x="260" y="310" as="targetPoint" />
          </mxGeometry>
        </mxCell>
        <mxCell id="UL-ph8x6PNyWj-oFK9BK-24" value="" style="endArrow=diamondThin;endFill=0;endSize=24;html=1;rounded=0;entryX=0;entryY=0;entryDx=0;entryDy=0;exitX=1;exitY=1;exitDx=0;exitDy=0;" parent="1" source="UL-ph8x6PNyWj-oFK9BK-4" target="UL-ph8x6PNyWj-oFK9BK-5" edge="1">
          <mxGeometry width="160" relative="1" as="geometry">
            <mxPoint x="550" y="270" as="sourcePoint" />
            <mxPoint x="530" y="480" as="targetPoint" />
          </mxGeometry>
        </mxCell>
        <mxCell id="UL-ph8x6PNyWj-oFK9BK-30" value="" style="endArrow=diamondThin;endFill=0;endSize=24;html=1;rounded=0;entryX=0;entryY=1;entryDx=0;entryDy=0;exitX=0.75;exitY=0;exitDx=0;exitDy=0;" parent="1" source="UL-ph8x6PNyWj-oFK9BK-14" target="UL-ph8x6PNyWj-oFK9BK-5" edge="1">
          <mxGeometry width="160" relative="1" as="geometry">
            <mxPoint x="400" y="360" as="sourcePoint" />
            <mxPoint x="580" y="480" as="targetPoint" />
            <Array as="points">
              <mxPoint x="440" y="398" />
            </Array>
          </mxGeometry>
        </mxCell>
      </root>
    </mxGraphModel>
  </diagram>
</mxfile>
